<mxfile host="app.diagrams.net" modified="2023-08-11T12:49:05.969Z" agent="Mozilla/5.0 (Windows NT 10.0; Win64; x64) AppleWebKit/537.36 (KHTML, like Gecko) Chrome/115.0.0.0 Safari/537.36" etag="9BwK030XwdKWB80qdlpr" version="21.6.7" type="github">
  <diagram id="R2lEEEUBdFMjLlhIrx00" name="Page-1">
    <mxGraphModel dx="6009" dy="3951" grid="1" gridSize="10" guides="1" tooltips="1" connect="1" arrows="1" fold="1" page="1" pageScale="1" pageWidth="4681" pageHeight="3300" math="0" shadow="0" extFonts="Permanent Marker^https://fonts.googleapis.com/css?family=Permanent+Marker">
      <root>
        <mxCell id="0" />
        <mxCell id="1" parent="0" />
        <mxCell id="E_BUk5vKATIXBva20PGI-1" value="alunos" style="whiteSpace=wrap;html=1;align=center;rounded=0;labelBackgroundColor=none;" vertex="1" parent="1">
          <mxGeometry x="160" y="140" width="60" height="30" as="geometry" />
        </mxCell>
        <mxCell id="E_BUk5vKATIXBva20PGI-68" value="" style="rounded=0;orthogonalLoop=1;jettySize=auto;html=1;entryX=0;entryY=0.5;entryDx=0;entryDy=0;endArrow=none;endFill=0;labelBackgroundColor=none;fontColor=default;" edge="1" parent="1" source="E_BUk5vKATIXBva20PGI-3" target="E_BUk5vKATIXBva20PGI-7">
          <mxGeometry relative="1" as="geometry" />
        </mxCell>
        <mxCell id="E_BUk5vKATIXBva20PGI-3" value="Fname" style="ellipse;whiteSpace=wrap;html=1;align=center;labelBackgroundColor=none;" vertex="1" parent="1">
          <mxGeometry x="-270" y="70" width="60" height="30" as="geometry" />
        </mxCell>
        <mxCell id="E_BUk5vKATIXBva20PGI-82" value="" style="rounded=0;orthogonalLoop=1;jettySize=auto;html=1;entryX=1;entryY=1;entryDx=0;entryDy=0;endArrow=none;endFill=0;labelBackgroundColor=none;fontColor=default;" edge="1" parent="1" source="E_BUk5vKATIXBva20PGI-5" target="E_BUk5vKATIXBva20PGI-7">
          <mxGeometry relative="1" as="geometry" />
        </mxCell>
        <mxCell id="E_BUk5vKATIXBva20PGI-5" value="Uname" style="ellipse;whiteSpace=wrap;html=1;align=center;labelBackgroundColor=none;" vertex="1" parent="1">
          <mxGeometry x="-260" y="180" width="60" height="30" as="geometry" />
        </mxCell>
        <mxCell id="E_BUk5vKATIXBva20PGI-69" value="" style="rounded=0;orthogonalLoop=1;jettySize=auto;html=1;entryX=0;entryY=1;entryDx=0;entryDy=0;endArrow=none;endFill=0;labelBackgroundColor=none;fontColor=default;" edge="1" parent="1" source="E_BUk5vKATIXBva20PGI-6" target="E_BUk5vKATIXBva20PGI-7">
          <mxGeometry relative="1" as="geometry" />
        </mxCell>
        <mxCell id="E_BUk5vKATIXBva20PGI-6" value="Mname" style="ellipse;whiteSpace=wrap;html=1;align=center;labelBackgroundColor=none;" vertex="1" parent="1">
          <mxGeometry x="-310" y="140" width="60" height="30" as="geometry" />
        </mxCell>
        <mxCell id="E_BUk5vKATIXBva20PGI-61" value="" style="rounded=0;orthogonalLoop=1;jettySize=auto;html=1;entryX=0;entryY=0.75;entryDx=0;entryDy=0;exitX=1;exitY=0.5;exitDx=0;exitDy=0;endArrow=none;endFill=0;labelBackgroundColor=none;fontColor=default;" edge="1" parent="1" source="E_BUk5vKATIXBva20PGI-7" target="E_BUk5vKATIXBva20PGI-1">
          <mxGeometry relative="1" as="geometry" />
        </mxCell>
        <mxCell id="E_BUk5vKATIXBva20PGI-7" value="name" style="ellipse;whiteSpace=wrap;html=1;align=center;labelBackgroundColor=none;" vertex="1" parent="1">
          <mxGeometry x="-180" y="130" width="50" height="30" as="geometry" />
        </mxCell>
        <mxCell id="E_BUk5vKATIXBva20PGI-72" value="" style="rounded=0;orthogonalLoop=1;jettySize=auto;html=1;entryX=0;entryY=1;entryDx=0;entryDy=0;endArrow=none;endFill=0;labelBackgroundColor=none;fontColor=default;" edge="1" parent="1" source="E_BUk5vKATIXBva20PGI-13" target="E_BUk5vKATIXBva20PGI-18">
          <mxGeometry relative="1" as="geometry" />
        </mxCell>
        <mxCell id="E_BUk5vKATIXBva20PGI-13" value="name_pai" style="ellipse;whiteSpace=wrap;html=1;align=center;labelBackgroundColor=none;" vertex="1" parent="1">
          <mxGeometry x="-280.00000000000006" y="250" width="70" height="30" as="geometry" />
        </mxCell>
        <mxCell id="E_BUk5vKATIXBva20PGI-75" value="" style="rounded=0;orthogonalLoop=1;jettySize=auto;html=1;entryX=1;entryY=1;entryDx=0;entryDy=0;endArrow=none;endFill=0;labelBackgroundColor=none;fontColor=default;" edge="1" parent="1" source="E_BUk5vKATIXBva20PGI-15" target="E_BUk5vKATIXBva20PGI-18">
          <mxGeometry relative="1" as="geometry" />
        </mxCell>
        <mxCell id="E_BUk5vKATIXBva20PGI-15" value="name_cuidador" style="ellipse;whiteSpace=wrap;html=1;align=center;labelBackgroundColor=none;" vertex="1" parent="1">
          <mxGeometry x="-280" y="350" width="100" height="30" as="geometry" />
        </mxCell>
        <mxCell id="E_BUk5vKATIXBva20PGI-74" value="" style="rounded=0;orthogonalLoop=1;jettySize=auto;html=1;entryX=0.5;entryY=1;entryDx=0;entryDy=0;endArrow=none;endFill=0;labelBackgroundColor=none;fontColor=default;" edge="1" parent="1" source="E_BUk5vKATIXBva20PGI-17" target="E_BUk5vKATIXBva20PGI-18">
          <mxGeometry relative="1" as="geometry" />
        </mxCell>
        <mxCell id="E_BUk5vKATIXBva20PGI-17" value="name_Mae" style="ellipse;whiteSpace=wrap;html=1;align=center;labelBackgroundColor=none;" vertex="1" parent="1">
          <mxGeometry x="-270" y="290" width="80" height="30" as="geometry" />
        </mxCell>
        <mxCell id="E_BUk5vKATIXBva20PGI-91" value="" style="rounded=0;orthogonalLoop=1;jettySize=auto;html=1;entryX=0.25;entryY=1;entryDx=0;entryDy=0;endArrow=none;endFill=0;labelBackgroundColor=none;fontColor=default;" edge="1" parent="1" source="E_BUk5vKATIXBva20PGI-18" target="E_BUk5vKATIXBva20PGI-1">
          <mxGeometry relative="1" as="geometry" />
        </mxCell>
        <mxCell id="E_BUk5vKATIXBva20PGI-18" value="filiacao" style="ellipse;whiteSpace=wrap;html=1;align=center;labelBackgroundColor=none;" vertex="1" parent="1">
          <mxGeometry x="-171.2" y="240" width="60" height="30" as="geometry" />
        </mxCell>
        <mxCell id="E_BUk5vKATIXBva20PGI-58" value="" style="rounded=0;orthogonalLoop=1;jettySize=auto;html=1;endArrow=none;endFill=0;labelBackgroundColor=none;fontColor=default;" edge="1" parent="1" source="E_BUk5vKATIXBva20PGI-20" target="E_BUk5vKATIXBva20PGI-1">
          <mxGeometry relative="1" as="geometry" />
        </mxCell>
        <mxCell id="E_BUk5vKATIXBva20PGI-20" value="id_aluno" style="ellipse;whiteSpace=wrap;html=1;align=center;labelBackgroundColor=none;" vertex="1" parent="1">
          <mxGeometry x="-53.2" y="110" width="70" height="30" as="geometry" />
        </mxCell>
        <mxCell id="E_BUk5vKATIXBva20PGI-60" value="" style="rounded=0;orthogonalLoop=1;jettySize=auto;html=1;exitX=1;exitY=0.5;exitDx=0;exitDy=0;entryX=0;entryY=0;entryDx=0;entryDy=0;endArrow=none;endFill=0;labelBackgroundColor=none;fontColor=default;" edge="1" parent="1" source="E_BUk5vKATIXBva20PGI-22" target="E_BUk5vKATIXBva20PGI-1">
          <mxGeometry relative="1" as="geometry" />
        </mxCell>
        <mxCell id="E_BUk5vKATIXBva20PGI-22" value="data_nascimento" style="ellipse;whiteSpace=wrap;html=1;align=center;labelBackgroundColor=none;" vertex="1" parent="1">
          <mxGeometry x="-130" y="70" width="110" height="30" as="geometry" />
        </mxCell>
        <mxCell id="E_BUk5vKATIXBva20PGI-83" value="" style="rounded=0;orthogonalLoop=1;jettySize=auto;html=1;entryX=1;entryY=1;entryDx=0;entryDy=0;endArrow=none;endFill=0;labelBackgroundColor=none;fontColor=default;" edge="1" parent="1" source="E_BUk5vKATIXBva20PGI-27" target="E_BUk5vKATIXBva20PGI-18">
          <mxGeometry relative="1" as="geometry" />
        </mxCell>
        <mxCell id="E_BUk5vKATIXBva20PGI-27" value="contato_pai" style="ellipse;whiteSpace=wrap;html=1;align=center;labelBackgroundColor=none;" vertex="1" parent="1">
          <mxGeometry x="-186.2" y="320" width="90" height="30" as="geometry" />
        </mxCell>
        <mxCell id="E_BUk5vKATIXBva20PGI-84" value="" style="rounded=0;orthogonalLoop=1;jettySize=auto;html=1;exitX=0.5;exitY=0;exitDx=0;exitDy=0;entryX=1;entryY=0.5;entryDx=0;entryDy=0;startArrow=none;startFill=0;endArrow=none;endFill=0;labelBackgroundColor=none;fontColor=default;" edge="1" parent="1" source="E_BUk5vKATIXBva20PGI-29" target="E_BUk5vKATIXBva20PGI-18">
          <mxGeometry relative="1" as="geometry" />
        </mxCell>
        <mxCell id="E_BUk5vKATIXBva20PGI-29" value="contato_mae" style="ellipse;whiteSpace=wrap;html=1;align=center;labelBackgroundColor=none;" vertex="1" parent="1">
          <mxGeometry x="-110" y="330" width="90" height="30" as="geometry" />
        </mxCell>
        <mxCell id="E_BUk5vKATIXBva20PGI-63" value="" style="rounded=0;orthogonalLoop=1;jettySize=auto;html=1;entryX=0.25;entryY=0;entryDx=0;entryDy=0;endArrow=none;endFill=0;labelBackgroundColor=none;fontColor=default;" edge="1" parent="1" source="E_BUk5vKATIXBva20PGI-43" target="E_BUk5vKATIXBva20PGI-1">
          <mxGeometry relative="1" as="geometry" />
        </mxCell>
        <mxCell id="E_BUk5vKATIXBva20PGI-43" value="endereco" style="ellipse;whiteSpace=wrap;html=1;align=center;labelBackgroundColor=none;" vertex="1" parent="1">
          <mxGeometry x="40" y="25" width="70" height="30" as="geometry" />
        </mxCell>
        <mxCell id="E_BUk5vKATIXBva20PGI-85" value="" style="rounded=0;orthogonalLoop=1;jettySize=auto;html=1;entryX=1;entryY=0;entryDx=0;entryDy=0;endArrow=none;endFill=0;labelBackgroundColor=none;fontColor=default;" edge="1" parent="1" source="E_BUk5vKATIXBva20PGI-45" target="E_BUk5vKATIXBva20PGI-18">
          <mxGeometry relative="1" as="geometry" />
        </mxCell>
        <mxCell id="E_BUk5vKATIXBva20PGI-45" value="contato_cuidador" style="ellipse;whiteSpace=wrap;html=1;align=center;labelBackgroundColor=none;" vertex="1" parent="1">
          <mxGeometry x="-78.2" y="260" width="120" height="30" as="geometry" />
        </mxCell>
        <mxCell id="E_BUk5vKATIXBva20PGI-64" value="" style="rounded=0;orthogonalLoop=1;jettySize=auto;html=1;entryX=0.5;entryY=0;entryDx=0;entryDy=0;endArrow=none;endFill=0;labelBackgroundColor=none;fontColor=default;" edge="1" parent="1" source="E_BUk5vKATIXBva20PGI-47" target="E_BUk5vKATIXBva20PGI-1">
          <mxGeometry relative="1" as="geometry" />
        </mxCell>
        <mxCell id="E_BUk5vKATIXBva20PGI-47" value="naturalidade" style="ellipse;whiteSpace=wrap;html=1;align=center;fontSize=11;labelBackgroundColor=none;" vertex="1" parent="1">
          <mxGeometry x="113" y="10" width="80" height="30" as="geometry" />
        </mxCell>
        <mxCell id="E_BUk5vKATIXBva20PGI-65" value="" style="rounded=0;orthogonalLoop=1;jettySize=auto;html=1;entryX=0.75;entryY=0;entryDx=0;entryDy=0;endArrow=none;endFill=0;labelBackgroundColor=none;fontColor=default;" edge="1" parent="1" source="E_BUk5vKATIXBva20PGI-49" target="E_BUk5vKATIXBva20PGI-1">
          <mxGeometry relative="1" as="geometry" />
        </mxCell>
        <mxCell id="E_BUk5vKATIXBva20PGI-49" value="nacionalidade" style="ellipse;whiteSpace=wrap;html=1;align=center;fontSize=11;labelBackgroundColor=none;" vertex="1" parent="1">
          <mxGeometry x="208" y="10" width="90" height="30" as="geometry" />
        </mxCell>
        <mxCell id="E_BUk5vKATIXBva20PGI-66" value="" style="rounded=0;orthogonalLoop=1;jettySize=auto;html=1;entryX=1;entryY=0;entryDx=0;entryDy=0;endArrow=none;endFill=0;labelBackgroundColor=none;fontColor=default;" edge="1" parent="1" source="E_BUk5vKATIXBva20PGI-55" target="E_BUk5vKATIXBva20PGI-1">
          <mxGeometry relative="1" as="geometry" />
        </mxCell>
        <mxCell id="E_BUk5vKATIXBva20PGI-55" value="Rg" style="ellipse;whiteSpace=wrap;html=1;align=center;fontSize=11;labelBackgroundColor=none;" vertex="1" parent="1">
          <mxGeometry x="310" y="10" width="40" height="30" as="geometry" />
        </mxCell>
        <mxCell id="E_BUk5vKATIXBva20PGI-67" value="" style="orthogonalLoop=1;jettySize=auto;html=1;entryX=1;entryY=0.25;entryDx=0;entryDy=0;endArrow=none;endFill=0;labelBackgroundColor=none;fontColor=default;" edge="1" parent="1" source="E_BUk5vKATIXBva20PGI-56" target="E_BUk5vKATIXBva20PGI-1">
          <mxGeometry relative="1" as="geometry" />
        </mxCell>
        <mxCell id="E_BUk5vKATIXBva20PGI-56" value="CPF" style="ellipse;whiteSpace=wrap;html=1;align=center;fontSize=11;labelBackgroundColor=none;" vertex="1" parent="1">
          <mxGeometry x="360" y="10" width="50" height="30" as="geometry" />
        </mxCell>
        <mxCell id="E_BUk5vKATIXBva20PGI-88" value="" style="rounded=0;orthogonalLoop=1;jettySize=auto;html=1;entryX=0.133;entryY=-0.047;entryDx=0;entryDy=0;entryPerimeter=0;endArrow=none;endFill=0;labelBackgroundColor=none;fontColor=default;" edge="1" parent="1" source="E_BUk5vKATIXBva20PGI-87" target="E_BUk5vKATIXBva20PGI-1">
          <mxGeometry relative="1" as="geometry" />
        </mxCell>
        <mxCell id="E_BUk5vKATIXBva20PGI-87" value="matricula" style="ellipse;whiteSpace=wrap;html=1;align=center;labelBackgroundColor=none;" vertex="1" parent="1">
          <mxGeometry x="-13.200000000000003" y="55" width="73.2" height="30" as="geometry" />
        </mxCell>
        <mxCell id="E_BUk5vKATIXBva20PGI-89" value="" style="edgeStyle=orthogonalEdgeStyle;rounded=0;orthogonalLoop=1;jettySize=auto;html=1;exitX=0.5;exitY=1;exitDx=0;exitDy=0;labelBackgroundColor=none;fontColor=default;" edge="1" parent="1" source="E_BUk5vKATIXBva20PGI-20" target="E_BUk5vKATIXBva20PGI-20">
          <mxGeometry relative="1" as="geometry" />
        </mxCell>
        <mxCell id="E_BUk5vKATIXBva20PGI-100" value="funcionários" style="whiteSpace=wrap;html=1;align=center;labelBackgroundColor=none;" vertex="1" parent="1">
          <mxGeometry x="700" y="30" width="100" height="40" as="geometry" />
        </mxCell>
        <mxCell id="E_BUk5vKATIXBva20PGI-101" value="id_funcionario" style="ellipse;whiteSpace=wrap;html=1;align=center;labelBackgroundColor=none;" vertex="1" parent="1">
          <mxGeometry x="560" y="10" width="100" height="30" as="geometry" />
        </mxCell>
        <mxCell id="E_BUk5vKATIXBva20PGI-102" value="data_nascimento" style="ellipse;whiteSpace=wrap;html=1;align=center;labelBackgroundColor=none;" vertex="1" parent="1">
          <mxGeometry x="500" y="60" width="110" height="30" as="geometry" />
        </mxCell>
        <mxCell id="E_BUk5vKATIXBva20PGI-103" value="endereco" style="ellipse;whiteSpace=wrap;html=1;align=center;labelBackgroundColor=none;" vertex="1" parent="1">
          <mxGeometry x="860" y="55" width="70" height="30" as="geometry" />
        </mxCell>
        <mxCell id="E_BUk5vKATIXBva20PGI-104" value="naturalidade" style="ellipse;whiteSpace=wrap;html=1;align=center;fontSize=11;labelBackgroundColor=none;" vertex="1" parent="1">
          <mxGeometry x="670" y="120" width="80" height="30" as="geometry" />
        </mxCell>
        <mxCell id="E_BUk5vKATIXBva20PGI-105" value="nacionalidade" style="ellipse;whiteSpace=wrap;html=1;align=center;fontSize=11;labelBackgroundColor=none;" vertex="1" parent="1">
          <mxGeometry x="570" y="100" width="90" height="30" as="geometry" />
        </mxCell>
        <mxCell id="E_BUk5vKATIXBva20PGI-106" value="Rg" style="ellipse;whiteSpace=wrap;html=1;align=center;fontSize=11;labelBackgroundColor=none;" vertex="1" parent="1">
          <mxGeometry x="830" y="90" width="40" height="30" as="geometry" />
        </mxCell>
        <mxCell id="E_BUk5vKATIXBva20PGI-107" value="CPF" style="ellipse;whiteSpace=wrap;html=1;align=center;fontSize=11;labelBackgroundColor=none;" vertex="1" parent="1">
          <mxGeometry x="780" y="120" width="50" height="30" as="geometry" />
        </mxCell>
        <mxCell id="E_BUk5vKATIXBva20PGI-108" value="data_inicio" style="ellipse;whiteSpace=wrap;html=1;align=center;labelBackgroundColor=none;" vertex="1" parent="1">
          <mxGeometry x="470" y="160" width="110" height="30" as="geometry" />
        </mxCell>
        <mxCell id="E_BUk5vKATIXBva20PGI-111" style="rounded=0;orthogonalLoop=1;jettySize=auto;html=1;entryX=1;entryY=0.5;entryDx=0;entryDy=0;endArrow=none;endFill=0;" edge="1" parent="1" source="E_BUk5vKATIXBva20PGI-109" target="E_BUk5vKATIXBva20PGI-1">
          <mxGeometry relative="1" as="geometry" />
        </mxCell>
        <mxCell id="E_BUk5vKATIXBva20PGI-109" value="sexo" style="ellipse;whiteSpace=wrap;html=1;align=center;fontSize=11;labelBackgroundColor=none;" vertex="1" parent="1">
          <mxGeometry x="360" y="60" width="50" height="30" as="geometry" />
        </mxCell>
        <mxCell id="E_BUk5vKATIXBva20PGI-113" value="sexo" style="ellipse;whiteSpace=wrap;html=1;align=center;fontSize=11;labelBackgroundColor=none;" vertex="1" parent="1">
          <mxGeometry x="685" y="-20" width="50" height="30" as="geometry" />
        </mxCell>
        <mxCell id="E_BUk5vKATIXBva20PGI-114" value="salario_base" style="ellipse;whiteSpace=wrap;html=1;align=center;fontSize=11;labelBackgroundColor=none;" vertex="1" parent="1">
          <mxGeometry x="780" y="-20" width="90" height="30" as="geometry" />
        </mxCell>
        <mxCell id="E_BUk5vKATIXBva20PGI-115" value="departamento" style="whiteSpace=wrap;html=1;align=center;labelBackgroundColor=none;" vertex="1" parent="1">
          <mxGeometry x="830" y="430" width="100" height="40" as="geometry" />
        </mxCell>
        <mxCell id="E_BUk5vKATIXBva20PGI-116" value="escola" style="whiteSpace=wrap;html=1;align=center;labelBackgroundColor=none;" vertex="1" parent="1">
          <mxGeometry x="990" y="325" width="100" height="40" as="geometry" />
        </mxCell>
      </root>
    </mxGraphModel>
  </diagram>
</mxfile>
